<svg xmlns="http://www.w3.org/2000/svg" viewBox="0 0 374 430" fill="none">
  <defs>
    <filter id="glow" x="-10%" y="-10%" width="120%" height="120%">
      <feGaussianBlur stdDeviation="4" result="blur" />
      <feMerge>
        <feMergeNode in="blur" />
        <feMergeNode in="SourceGraphic" />
      </feMerge>
    </filter>
  </defs>
  <g transform="translate(-328.627095,728.970770) scale(0.100000,-0.100000)" filter="url(#glow)" fill="#E8B86D" stroke="none">
    <path d="M5530 7274 c-40 -8 -130 -46 -235 -98 -94 -47 -213 -100 -265 -118
-91 -31 -102 -33 -240 -33 -168 0 -241 17 -469 105 -72 28 -162 58 -199 66
-91 22 -258 22 -342 1 -257 -67 -451 -288 -489 -557 -35 -254 121 -490 324
-490 106 0 175 62 175 156 0 47 -23 74 -62 74 -25 0 -58 -27 -58 -48 0 -6 -11
-19 -25 -30 -51 -40 -144 9 -189 100 -34 69 -37 176 -5 243 47 101 160 160
290 153 94 -6 155 -33 225 -103 117 -117 147 -236 159 -630 12 -393 -29 -593
-145 -719 -55 -59 -122 -91 -247 -115 -57 -11 -122 -30 -145 -42 -177 -89
-264 -287 -213 -483 34 -130 145 -230 270 -243 97 -10 186 54 201 144 12 80
-36 155 -110 169 -44 8 -69 -1 -112 -38 -47 -42 -78 -33 -106 29 -42 94 -5
225 80 286 90 65 238 43 342 -50 67 -60 102 -112 133 -199 39 -109 51 -215 50
-464 0 -226 -8 -318 -43 -486 -80 -389 -289 -627 -635 -723 -133 -37 -159 -63
-119 -119 11 -15 25 -22 50 -22 46 0 192 33 339 76 318 95 539 156 642 179
518 116 1125 124 1582 20 173 -39 363 -114 466 -184 31 -22 70 -27 93 -12 7 4
26 47 43 96 34 99 75 183 159 330 173 301 291 519 304 566 54 179 -21 421
-161 521 -93 67 -145 83 -268 83 -101 0 -115 -2 -169 -29 -156 -76 -228 -222
-184 -370 17 -55 91 -129 143 -142 83 -20 155 7 203 77 35 50 27 124 -17 180
-40 49 -36 80 12 109 69 43 183 17 246 -55 61 -70 76 -117 76 -236 0 -101 -1
-108 -37 -181 -68 -137 -156 -188 -321 -188 -51 0 -135 7 -187 15 -623 99
-856 107 -1135 43 -49 -11 -122 -33 -161 -48 l-71 -27 28 71 c36 92 64 203 84
324 8 53 18 108 22 122 3 14 9 511 13 1105 5 718 11 1109 19 1165 16 121 39
205 76 285 57 123 138 184 256 193 57 4 75 1 122 -21 76 -34 138 -99 180 -188
45 -93 61 -185 54 -303 -14 -228 -113 -408 -264 -477 -47 -22 -64 -35 -69 -54
-9 -36 19 -75 54 -75 52 0 218 52 312 98 78 38 110 62 181 132 135 133 191
270 193 475 1 133 -12 190 -70 312 -116 242 -360 356 -634 297z m-449 -371
c-49 -99 -77 -186 -103 -315 -20 -99 -21 -150 -28 -1178 -8 -1125 -10 -1172
-55 -1365 -68 -293 -210 -481 -476 -628 -59 -33 -290 -127 -312 -127 -4 0 31
27 80 59 286 192 471 428 548 698 59 209 57 175 65 1243 7 1055 7 1058 61
1265 41 159 113 308 181 371 27 26 64 52 75 54 1 0 -15 -35 -36 -77z m-256 -1
c-6 -4 -49 -41 -96 -80 -186 -155 -294 -315 -352 -520 -21 -76 -22 -85 -27
-1242 -5 -1052 -8 -1173 -23 -1245 -46 -214 -145 -372 -294 -471 -28 -19 -54
-34 -57 -34 -3 0 17 30 45 67 100 134 166 308 204 533 22 129 31 517 16 686
-19 219 -65 343 -165 451 -30 33 -76 71 -101 84 -25 13 -45 26 -45 29 0 3 20
14 43 24 23 11 69 47 103 80 69 70 109 146 144 276 22 78 24 110 28 405 5 411
-9 535 -77 680 -32 69 -118 167 -170 195 -53 28 -27 24 111 -16 103 -30 140
-37 223 -38 115 -1 159 11 300 82 78 40 127 56 185 61 8 0 10 -2 5 -7z"/>
  </g>
</svg>
